# xmcd
#
# Track frame offsets:
# 150
# 17268
# 28127
# 40858
# 44010
# 60500
# 73331
# 91297
# 103895
# 117856
# 131731
# 146645
# 161665
# 189210
#
# Disc length: 2677 seconds
#
#
# Revision: 3
# Processed by: cddbd v1.4PL0 Copyright (c) Steve Scherf et al.
# Submitted via: FreeRIP 2.30 
#
DISCID=c40a730e
DTITLE=Blink-182 - Take off your pants and jacket (clean)
DYEAR=2001
DGENRE=Punk Rock
TTITLE0=Anthem Part 2
TTITLE1=Online Songs
TTITLE2=First Date
TTITLE3=Happy Holidays
TTITLE4=Story of a lonely guy
TTITLE5=The Rock Show
TTITLE6=Stay together for the kids
TTITLE7=Roller Coaster
TTITLE8=Reckless abandon
TTITLE9=Every Time I Look For You
TTITLE10=Give Me One Good Reason
TTITLE11=Shut Up
TTITLE12=Please Take Me Home
TTITLE13=Bonus Track
EXTD=YEAR: 2001 ID3G: 121
EXTT0=
EXTT1=
EXTT2=
EXTT3=
EXTT4=
EXTT5=
EXTT6=
EXTT7=
EXTT8=
EXTT9=
EXTT10=
EXTT11=
EXTT12=
EXTT13=
PLAYORDER=
